<svg width="156" height="159" viewBox="0 0 156 159" fill="none" xmlns="http://www.w3.org/2000/svg">
<ellipse cx="69.7816" cy="140.391" rx="3.014" ry="5.0761" transform="rotate(22.8293 69.7816 140.391)" fill="black"/>
<ellipse cx="57.8672" cy="128.465" rx="3.014" ry="6.08312" transform="rotate(43.7585 57.8672 128.465)" fill="black"/>
<ellipse cx="96.0275" cy="122.151" rx="3.014" ry="6.08312" transform="rotate(43.7585 96.0275 122.151)" fill="black"/>
<ellipse cx="107.382" cy="84.2262" rx="3.014" ry="6.08312" transform="rotate(43.7585 107.382 84.2262)" fill="black"/>
<ellipse cx="140.906" cy="68.7152" rx="3.014" ry="6.08312" transform="rotate(43.7585 140.906 68.7152)" fill="black"/>
<path d="M41.4788 113.456C39.1552 115.883 34.0434 115.507 32.8412 114.355C31.6389 113.204 32.5479 110.304 34.8715 107.877C37.195 105.451 50.561 101.29 51.7633 102.441C52.9656 103.593 43.8024 111.03 41.4788 113.456Z" fill="black"/>
<path d="M81.6369 110.757C79.3133 113.184 74.2015 112.808 72.9993 111.656C71.797 110.505 72.706 107.605 75.0296 105.178C77.3532 102.752 90.7191 98.5912 91.9214 99.7424C93.1237 100.894 83.9605 108.331 81.6369 110.757Z" fill="black"/>
<path d="M93.9405 69.8799C91.617 72.3064 86.5052 71.9303 85.3029 70.7791C84.1006 69.6278 85.0097 66.7275 87.3332 64.3009C89.6568 61.8744 103.023 57.714 104.225 58.8652C105.427 60.0165 96.2641 67.4534 93.9405 69.8799Z" fill="black"/>
<path d="M124.521 53.7075C122.197 56.134 117.085 55.758 115.883 54.6067C114.681 53.4555 115.59 50.5551 117.913 48.1286C120.237 45.702 133.603 41.5416 134.805 42.6928C136.007 43.8441 126.844 51.281 124.521 53.7075Z" fill="black"/>
<path d="M26.5618 89.712C24.9994 91.3436 21.5621 91.0908 20.7537 90.3166C19.9453 89.5425 20.5565 87.5923 22.1189 85.9607C23.6813 84.329 32.6688 81.5315 33.4772 82.3056C34.2856 83.0797 28.1242 88.0804 26.5618 89.712Z" fill="black"/>
<path d="M69.6694 87.6729C68.107 89.3046 64.6698 89.0517 63.8614 88.2776C63.0529 87.5035 63.6642 85.5532 65.2266 83.9216C66.789 82.29 75.7765 79.4924 76.5849 80.2665C77.3933 81.0407 71.2318 86.0413 69.6694 87.6729Z" fill="black"/>
<path d="M79.0265 46.1329C77.4641 47.7645 74.0268 47.5117 73.2184 46.7375C72.41 45.9634 73.0212 44.0132 74.5836 42.3815C76.146 40.7499 85.1335 37.9524 85.9419 38.7265C86.7503 39.5006 80.5889 44.5013 79.0265 46.1329Z" fill="black"/>
<path d="M112.546 30.6205C110.983 32.2521 107.546 31.9992 106.738 31.2251C105.929 30.451 106.541 28.5007 108.103 26.8691C109.665 25.2375 118.653 22.4399 119.461 23.214C120.27 23.9882 114.108 28.9888 112.546 30.6205Z" fill="black"/>
<path d="M20.7461 69.6178C19.5434 71.5301 16.1255 71.9731 15.178 71.3773C14.2305 70.7814 14.4373 68.7481 15.64 66.8358C16.8426 64.9235 25.0846 60.3769 26.0321 60.9728C26.9796 61.5686 21.9487 67.7055 20.7461 69.6178Z" fill="black"/>
<path d="M61.5789 59.0336C60.3763 60.9459 56.9584 61.3889 56.0109 60.793C55.0634 60.1972 55.2702 58.1639 56.4729 56.2515C57.6755 54.3392 65.9175 49.7927 66.865 50.3885C67.8125 50.9844 62.7816 57.1212 61.5789 59.0336Z" fill="black"/>
</svg>
